<?xml version="1.0" encoding="utf-8"?>
<!-- Generator: Adobe Illustrator 22.1.0, SVG Export Plug-In . SVG Version: 6.00 Build 0)  -->
<svg version="1.1" id="Layer_1" xmlns="http://www.w3.org/2000/svg" xmlns:xlink="http://www.w3.org/1999/xlink" x="0px" y="0px"
	 viewBox="0 0 307 107" style="enable-background:new 0 0 307 107;" xml:space="preserve">
<g>
	<path d="M277,2.5L265.1,12l-0.3-9.5h-47.1l-8,5.8l-1.1-5.8l-48.6,0l-11.4,8.6l1.9-8.6h-49.7L90.8,9.7l-0.3-7.2h-24l-7.9,5.9L58,2.5
		H31.1L11.4,20.3l-5.9,85.1h22.4l13.6-9.6l-2.3,9.6h22.8L78.6,93L75,105.4h28.7l10.9-7.9l2.6,7.9h43.6l12.1-8.9l1.3,8.9H200
		L217.3,91l-4.1,14.4h25.5L261.1,88l9.7-33.6l34.7-51.9L277,2.5z M63.9,84.9l4.3-42.8l-20,42.8h-19l0-0.4l5.5-79.1h20.9l0,0.4
		L52,42.4L69.7,5.5h18.7l0,0.4l-3.6,37.3l18.7-37.7h17.4L82.2,84.9H63.9z M140.4,84.9l0-0.3l-6.2-33.5L124,84.9h-21l0.1-0.4l23.3-79
		h20.1l-7,25l22.7-25h19.3L181.1,6l-27.7,34.9l9.1,44H140.4z M216.9,84.9h-18.6l-4.7-42.7l-12.4,42.7h-16.7l0.1-0.4l21.2-79h21.7
		l4,36.4l11-36.4h17l-0.1,0.4L216.9,84.9z M267.6,53.5l-9.1,31.4h-19.1l8.8-32.6l-6.3-46.8h19.8l1.7,27.4l17.2-27.4h19.6L267.6,53.5
		z"/>
</g>
</svg>
